<svg width="125" height="18" viewBox="0 0 125 18" fill="none" xmlns="http://www.w3.org/2000/svg">
<path d="M0 3.85742H5.4C7.71429 3.85742 9 4.62885 9 6.42885C9 7.45742 8.35714 8.22885 7.07143 8.48599L6.68571 8.61456V9.00028H6.81429C8.35714 9.12885 9.25714 9.90028 9.25714 11.4431C9.25714 13.1146 8.22857 14.2717 5.52857 14.2717H0V3.85742ZM4.88571 7.97171C6.17143 7.97171 6.68571 7.71456 6.68571 6.94314C6.68571 6.17171 6.04286 5.91456 4.88571 5.91456H2.31429V7.97171H4.88571ZM5.14286 12.2146C6.3 12.2146 6.94286 11.9574 6.94286 11.0574C6.94286 10.1574 6.17143 9.90028 5.14286 9.90028H2.18571V12.2146H5.14286Z" fill="white"/>
<path d="M12.3421 3.85742V10.0289C12.3421 11.5717 13.4993 12.3431 14.6564 12.3431C16.1993 12.3431 17.2278 11.0574 17.2278 9.90028V3.85742H19.5421V14.2717H17.485V12.7288H16.9707L16.1993 14.1431C15.685 14.4003 14.9135 14.5288 14.0135 14.5288C11.5707 14.5288 10.0278 12.7289 10.0278 10.4146V3.85742H12.3421Z" fill="white"/>
<path d="M22.757 3.85513V5.52656H23.2713L24.0427 4.11228C24.557 3.85513 25.457 3.72656 25.9713 3.72656C26.4856 3.72656 26.9999 3.72656 27.3856 3.85513V6.29799C26.9999 6.04085 26.357 5.91228 25.7141 5.91228C24.4284 5.91228 22.8856 6.6837 22.8856 8.74085V14.2694H20.5713V3.85513H22.757Z" fill="white"/>
<path d="M27.5137 8.99961C27.5137 6.04247 29.5708 3.59961 32.7851 3.59961C36.128 3.59961 37.7994 6.04247 37.7994 8.74247C37.7994 9.38532 37.7994 9.64247 37.7994 9.77104H29.9565C30.2137 11.4425 31.4994 12.3425 33.1708 12.3425C34.5851 12.3425 35.6137 11.6996 36.2565 10.671L37.7994 12.2139C36.7708 13.371 35.3565 14.3996 32.9137 14.3996C29.6994 14.5282 27.5137 12.3425 27.5137 8.99961ZM35.4851 7.97104C35.3565 6.81389 34.4565 5.78532 32.9137 5.78532C31.4994 5.78532 30.4708 6.55675 30.0851 7.97104H35.4851Z" fill="white"/>
<path d="M38.3145 8.99961C38.3145 5.65675 40.6287 3.59961 43.3287 3.59961C43.9716 3.59961 44.6145 3.72818 45.1287 3.98532L45.9002 5.39961H46.4145V3.85675H48.7287V14.271H46.4145V12.5996H45.9002L45.1287 14.0139C44.743 14.271 43.843 14.3996 43.2002 14.3996C40.5002 14.3996 38.3145 12.2139 38.3145 8.99961ZM43.5859 12.3425C45.5145 12.3425 46.543 10.7996 46.543 9.12818C46.543 7.45675 45.5145 5.78532 43.5859 5.78532C41.7859 5.78532 40.6287 7.32818 40.6287 9.12818C40.6287 10.9282 41.7859 12.3425 43.5859 12.3425Z" fill="white"/>
<path d="M52.0718 3.85742V10.0289C52.0718 11.5717 53.2289 12.3431 54.3861 12.3431C55.9289 12.3431 56.9575 11.0574 56.9575 9.90028V3.85742H59.1432V14.2717H57.0861V12.7288H56.5718L55.8003 14.1431C55.2861 14.4003 54.5146 14.5288 53.6146 14.5288C51.1718 14.5288 49.6289 12.7289 49.6289 10.4146V3.85742H52.0718Z" fill="white"/>
<path d="M66.3438 11.8298H69.8152V5.5298H66.7295V3.47266H72.1295V11.8298H75.4723V13.8869H66.3438V11.8298Z" fill="white"/>
<path d="M80.6147 12.4727L84.8576 9.90123L84.6005 9.38694L82.6719 9.90123C81.7719 9.51551 80.6147 8.74408 80.6147 7.07266C80.6147 5.01551 82.4147 3.47266 85.5005 3.47266C88.4576 3.47266 90.129 4.88694 90.129 7.07266C90.129 8.61551 88.9719 9.51551 87.5576 10.2869L84.6005 12.0869H90.3862V14.1441H80.7433L80.6147 12.4727ZM85.3719 8.74408C86.7862 8.74408 87.6862 8.2298 87.6862 7.20123C87.6862 6.17266 86.6576 5.65837 85.3719 5.65837C84.0862 5.65837 83.0576 6.17266 83.0576 7.20123C83.0576 8.2298 83.9576 8.74408 85.3719 8.74408Z" fill="white"/>
<path d="M96.043 12.2146H99.5144V5.91456H96.4287V3.85742H101.829V12.2146H105.172V14.2717H96.043V12.2146Z" fill="white"/>
<path d="M115.844 0C112.629 0 109.929 1.67143 108.258 4.11429C106.587 1.54286 103.758 0 100.672 0C97.5866 0 94.758 1.54286 93.0866 4.24286C91.4152 1.67143 88.5866 0 85.5009 0C82.5438 0 79.9723 1.41429 78.3009 3.72857C76.5009 1.41429 73.8009 0 70.8438 0C65.8295 0 61.8438 3.98571 61.8438 9C61.8438 14.0143 65.8295 18 70.8438 18C73.8009 18 76.3723 16.5857 78.0438 14.2714C79.7152 16.5857 82.4152 18 85.3723 18C88.458 18 91.2866 16.4571 92.958 13.7571C94.6295 16.3286 97.458 18 100.544 18C103.629 18 106.458 16.4571 108.129 13.8857C109.672 16.3286 112.501 18 115.715 18C120.729 18 124.715 14.0143 124.715 9C124.715 3.98571 120.729 0 115.844 0ZM70.8438 16.9714C66.4723 16.9714 62.8723 13.3714 62.8723 9C62.8723 4.62857 66.4723 1.02857 70.8438 1.02857C73.5437 1.02857 75.9866 2.44286 77.5295 4.62857C76.758 5.91429 76.3723 7.45714 76.3723 9C76.3723 10.5429 76.758 12.0857 77.5295 13.3714C75.9866 15.6857 73.5437 16.9714 70.8438 16.9714ZM85.3723 16.9714C82.5438 16.9714 79.8438 15.4286 78.4295 12.9857C77.7866 11.8286 77.4009 10.4143 77.4009 9C77.4009 7.45714 77.7866 6.04286 78.6866 4.75714C80.1009 2.44286 82.6723 1.02857 85.3723 1.02857C88.3295 1.02857 91.0295 2.7 92.4438 5.27143C91.9295 6.42857 91.6723 7.71429 91.6723 9C91.6723 10.2857 91.9295 11.5714 92.4438 12.7286C91.0295 15.3 88.3295 16.9714 85.3723 16.9714ZM100.672 16.9714C97.5866 16.9714 94.8866 15.3 93.6009 12.6V12.4714C92.958 11.4429 92.7009 10.2857 92.7009 9C92.7009 7.71429 92.958 6.55714 93.4723 5.52857V5.4C94.8866 2.7 97.5866 1.02857 100.544 1.02857C103.501 1.02857 106.201 2.57143 107.487 5.14286C107.101 6.42857 106.715 7.58571 106.715 9C106.715 10.4143 106.972 11.5714 107.487 12.7286C106.201 15.4286 103.629 16.9714 100.672 16.9714ZM115.844 16.9714C111.472 16.9714 107.872 13.3714 107.872 9C107.872 4.62857 111.472 1.02857 115.844 1.02857C120.215 1.02857 123.815 4.62857 123.815 9C123.815 13.3714 120.215 16.9714 115.844 16.9714Z" fill="white"/>
<path d="M113.914 5.78566V7.32852H111.6V3.72852H120.472V6.68566L115.2 14.1428H112.629L118.286 6.29994V5.78566C118.157 5.78566 113.914 5.78566 113.914 5.78566Z" fill="white"/>
</svg>
