<?xml version="1.0" encoding="UTF-8"?>
<svg id="Calque_1" data-name="Calque 1" xmlns="http://www.w3.org/2000/svg" viewBox="0 0 400 400">
  <defs>
    <style>
      .cls-1 {
        fill: #fff;
        stroke: #fff;
        stroke-miterlimit: 10;
      }
    </style>
  </defs>
  <circle class="cls-1" cx="200" cy="200" r="179"/>
  <g>
    <rect x="1.5" y="1.5" width="396" height="395.51" rx="197.75" ry="197.75"/>
    <path class="cls-1" d="M200,37.91c89.52,0,162.09,72.57,162.09,162.09s-72.57,162.09-162.09,162.09S37.91,289.52,37.91,200,110.48,37.91,200,37.91M200,0C89.72,0,0,89.72,0,200s89.72,200,200,200,200-89.72,200-200S310.28,0,200,0h0Z"/>
    <path class="cls-1" d="M153.3,94.07v118.15c0,29.33,20.78,44.42,43.85,44.42,29.89,0,49.25-24.2,49.25-47.26v-115.31h43.28v199.3h-40.14v-30.18h-9.11l-14.52,27.05c-11.11,5.12-23.35,7.4-40.72,7.4-45.84,0-75.16-34.73-75.16-79.43v-124.13h43.28Z"/>
  </g>
</svg>